<?xml version="1.0" standalone="no"?>
<!DOCTYPE svg PUBLIC "-//W3C//DTD SVG 20010904//EN"
 "http://www.w3.org/TR/2001/REC-SVG-20010904/DTD/svg10.dtd">
<svg version="1.0" xmlns="http://www.w3.org/2000/svg"
 width="120.000000pt" height="81.000000pt" viewBox="0 0 120.000000 81.000000"
 preserveAspectRatio="xMidYMid meet">

<g transform="translate(0.000000,81.000000) scale(0.100000,-0.100000)"
fill="#000000" stroke="none">
<path d="M386 747 c-14 -12 -28 -34 -32 -49 -6 -28 -6 -28 45 -28 36 0 53 4
57 15 10 25 40 26 95 5 30 -11 75 -20 101 -20 40 0 51 5 77 33 57 59 51 62
-144 64 -168 2 -176 2 -199 -20z"/>
<path d="M360 635 c0 -3 17 -42 39 -88 21 -45 73 -156 116 -247 42 -91 81
-169 86 -174 5 -6 29 34 57 95 27 57 73 154 102 214 55 115 90 194 90 201 0 2
-76 4 -169 4 l-170 0 17 -40 17 -40 83 0 c97 0 95 12 25 -137 l-46 -98 -76
157 -76 157 -47 1 c-27 0 -48 -2 -48 -5z"/>
<path d="M430 411 c0 -5 7 -15 17 -22 15 -13 15 -12 4 9 -12 23 -21 28 -21 13z"/>
<path d="M760 398 c-12 -22 -12 -22 6 -6 10 10 15 20 12 24 -4 3 -12 -5 -18
-18z"/>
<path d="M450 360 c0 -5 -13 -10 -30 -10 -33 0 -39 -14 -14 -28 23 -13 13 -46
-14 -50 -31 -5 -28 -32 3 -32 18 0 25 -5 25 -20 0 -11 -7 -23 -15 -26 -8 -4
-15 -13 -15 -21 0 -11 7 -14 26 -10 30 5 43 -16 25 -45 -9 -15 -9 -20 4 -24 8
-4 22 -1 30 6 20 16 38 2 32 -26 -3 -18 0 -24 14 -24 11 0 19 5 19 10 0 15 48
12 53 -2 3 -10 9 -10 26 0 25 15 51 16 51 2 0 -5 9 -10 19 -10 15 0 18 5 14
21 -7 26 14 41 40 27 25 -13 44 4 23 21 -23 19 -4 50 27 44 32 -6 44 13 17 27
-30 16 -26 50 5 50 16 0 25 6 25 15 0 8 -9 15 -20 15 -30 0 -37 30 -12 50 25
21 19 30 -20 30 -15 0 -28 5 -28 10 0 18 -17 10 -27 -13 -6 -12 -8 -45 -6 -73
7 -65 -14 -107 -66 -133 -21 -11 -42 -28 -45 -38 -7 -17 -8 -16 -24 3 -9 12
-32 29 -49 38 -46 23 -66 67 -60 130 2 28 0 61 -6 73 -10 23 -27 31 -27 13z"/>
</g>
</svg>
